<svg id="svg" version="1.1" xmlns="http://www.w3.org/2000/svg" xmlns:xlink="http://www.w3.org/1999/xlink" width="400" height="316" viewBox="0, 0, 400,316"><g id="svgg"><path id="path0" d="M105.296 13.933 C 105.296 14.917,199.704 203.004,200.198 203.004 C 200.399 203.004,295.020 14.157,295.020 13.755 C 295.020 13.668,285.437 13.597,273.724 13.597 L 252.428 13.597 252.239 17.470 C 251.928 23.872,250.858 27.380,246.441 36.484 C 235.946 58.114,200.410 128.729,200.068 128.634 C 199.394 128.448,150.956 31.289,149.916 28.037 C 148.651 24.084,148.065 21.021,147.803 16.996 L 147.582 13.597 126.439 13.597 C 111.716 13.597,105.296 13.699,105.296 13.933 " stroke="none" fill="#fb5b14" fill-rule="evenodd"></path><path id="path1" d="M80.174 0.296 C 80.339 0.459,81.924 0.887,83.696 1.247 C 89.273 2.380,96.095 5.175,99.655 7.785 C 101.248 8.953,104.664 12.497,104.664 12.981 C 104.664 13.163,112.980 13.277,126.191 13.276 L 147.718 13.274 150.016 11.459 C 151.279 10.461,154.708 7.749,157.634 5.432 C 161.279 2.547,163.137 1.267,163.533 1.371 C 163.974 1.486,164.111 1.342,164.111 0.761 L 164.111 0.000 121.992 0.000 C 95.800 0.000,79.987 0.112,80.174 0.296 M236.373 0.300 C 236.271 0.466,236.441 0.736,236.751 0.902 C 237.197 1.141,249.449 10.849,251.782 12.812 C 252.262 13.216,255.302 13.281,273.829 13.281 L 295.320 13.281 295.772 12.407 C 297.896 8.299,308.127 2.726,316.208 1.274 C 319.529 0.678,319.684 0.635,319.684 0.310 C 319.684 -0.107,236.632 -0.117,236.373 0.300 M0.211 164.005 C -0.412 164.628,1.011 166.217,3.891 168.114 C 5.142 168.939,7.447 170.626,9.012 171.863 C 50.639 204.766,118.292 238.805,176.489 256.128 C 184.531 258.522,184.795 258.659,182.530 259.265 C 179.353 260.115,170.792 261.839,168.169 262.157 C 166.545 262.353,165.135 262.564,165.035 262.625 C 164.732 262.810,149.716 265.513,144.980 266.235 C 142.545 266.606,140.340 266.996,140.079 267.102 C 139.818 267.207,139.404 267.259,139.158 267.218 C 138.912 267.176,138.414 267.286,138.051 267.462 C 137.124 267.912,119.930 270.221,111.462 271.034 C 109.202 271.250,107.274 271.539,107.180 271.674 C 107.085 271.810,106.021 272.061,104.814 272.232 C 103.349 272.439,102.476 272.731,102.188 273.109 C 101.302 274.270,100.511 276.562,100.331 278.488 L 100.146 280.474 102.010 280.472 C 119.941 280.448,182.194 268.620,213.439 259.300 C 239.321 251.580,264.039 242.666,283.774 233.938 C 295.505 228.749,298.466 227.379,307.194 223.109 C 337.589 208.234,363.034 193.033,384.506 176.920 C 386.854 175.158,390.055 172.765,391.621 171.602 C 398.685 166.352,401.275 163.794,399.526 163.794 C 399.265 163.794,399.051 163.937,399.051 164.111 C 399.051 164.285,398.908 164.427,398.732 164.427 C 398.557 164.427,397.241 165.181,395.807 166.103 C 394.374 167.024,392.383 168.244,391.383 168.814 C 390.383 169.383,389.565 169.951,389.565 170.075 C 389.565 170.199,388.747 170.791,387.747 171.390 C 386.747 171.989,383.937 173.774,381.502 175.357 C 379.067 176.940,376.008 178.848,374.704 179.597 C 373.399 180.346,371.656 181.437,370.829 182.021 C 370.003 182.605,369.271 183.083,369.204 183.083 C 368.980 183.083,360.325 188.197,359.842 188.615 C 359.581 188.840,357.162 190.196,354.466 191.627 C 351.771 193.057,349.352 194.406,349.091 194.624 C 348.830 194.841,346.482 196.140,343.874 197.509 C 341.265 198.879,338.846 200.173,338.498 200.385 C 337.299 201.117,310.666 214.312,308.142 215.426 C 306.751 216.040,304.759 216.935,303.715 217.415 C 302.672 217.895,301.619 218.326,301.376 218.372 C 301.132 218.418,300.847 218.582,300.743 218.736 C 300.639 218.890,299.984 219.246,299.289 219.527 C 298.593 219.809,295.818 220.980,293.123 222.130 C 290.427 223.280,287.947 224.282,287.612 224.356 C 287.277 224.430,286.921 224.617,286.822 224.770 C 286.722 224.924,284.221 225.987,281.265 227.133 C 274.866 229.614,272.077 230.747,271.359 231.157 C 271.068 231.323,267.913 232.516,264.348 233.807 C 260.783 235.098,257.439 236.331,256.917 236.548 C 256.395 236.766,255.897 236.967,255.810 236.996 C 255.723 237.025,255.296 237.195,254.862 237.374 C 254.427 237.552,250.727 238.806,246.640 240.159 C 242.553 241.513,239.032 242.759,238.814 242.930 C 238.597 243.100,238.419 243.133,238.419 243.004 C 238.419 242.874,238.241 242.912,238.024 243.088 C 237.806 243.263,233.787 244.566,229.091 245.983 C 224.395 247.399,220.340 248.648,220.079 248.756 C 219.818 248.865,219.483 248.927,219.334 248.893 C 219.186 248.859,218.901 248.965,218.702 249.127 C 218.503 249.290,215.921 250.079,212.964 250.881 C 210.008 251.682,206.024 252.764,204.111 253.284 C 199.843 254.445,200.330 254.452,195.651 253.163 C 193.521 252.577,189.573 251.496,186.877 250.760 C 184.182 250.025,181.834 249.314,181.660 249.181 C 181.486 249.048,180.988 248.866,180.553 248.777 C 179.087 248.476,163.645 243.746,162.688 243.304 C 162.166 243.063,158.111 241.652,153.676 240.167 C 149.241 238.683,145.399 237.374,145.138 237.259 C 144.877 237.145,144.593 237.026,144.506 236.997 C 144.419 236.967,143.992 236.796,143.557 236.616 C 143.123 236.436,139.921 235.255,136.443 233.992 C 132.964 232.729,129.834 231.589,129.486 231.459 C 129.138 231.328,128.769 231.241,128.665 231.263 C 128.561 231.286,128.225 231.095,127.917 230.840 C 127.609 230.584,126.911 230.217,126.366 230.023 C 122.779 228.749,113.657 225.015,113.570 224.785 C 113.513 224.631,113.282 224.506,113.057 224.506 C 112.833 224.506,112.027 224.236,111.265 223.906 C 110.504 223.576,107.960 222.495,105.613 221.503 C 103.265 220.511,99.992 219.061,98.340 218.279 C 96.688 217.497,93.415 216.004,91.067 214.961 C 88.719 213.918,86.643 212.936,86.453 212.780 C 86.263 212.624,86.014 212.589,85.900 212.704 C 85.785 212.818,85.692 212.771,85.692 212.599 C 85.692 212.427,84.945 211.959,84.032 211.559 C 81.416 210.413,62.352 200.836,61.048 200.013 C 60.402 199.605,58.586 198.625,57.012 197.834 C 55.438 197.044,52.318 195.347,50.079 194.063 C 47.840 192.780,44.798 191.059,43.320 190.239 C 41.842 189.419,40.250 188.505,39.783 188.208 C 38.462 187.368,30.896 182.941,30.533 182.795 C 30.355 182.724,30.044 182.500,29.843 182.299 C 29.641 182.097,28.429 181.315,27.149 180.560 C 25.869 179.805,23.778 178.534,22.502 177.736 C 21.225 176.938,19.945 176.142,19.656 175.968 C 19.367 175.793,18.277 175.069,17.233 174.359 C 16.190 173.648,14.625 172.662,13.755 172.166 C 12.885 171.671,11.023 170.439,9.616 169.427 C 8.209 168.416,6.959 167.589,6.837 167.589 C 6.715 167.589,5.346 166.735,3.794 165.692 C 0.960 163.786,0.600 163.616,0.211 164.005 M227.984 262.889 C 226.680 263.285,223.692 264.215,221.344 264.955 C 218.996 265.696,216.873 266.365,216.627 266.442 C 215.166 266.899,222.259 268.650,239.571 272.106 C 257.352 275.656,297.746 281.389,299.698 280.640 C 300.731 280.244,299.604 275.019,298.076 273.113 C 297.798 272.767,296.849 272.424,295.611 272.222 C 294.503 272.042,293.312 271.777,292.964 271.634 C 292.617 271.491,289.486 271.071,286.008 270.702 C 277.492 269.797,262.760 267.838,261.976 267.507 C 261.628 267.360,258.996 266.864,256.126 266.406 C 250.743 265.547,236.387 262.957,234.150 262.441 C 232.185 261.988,230.560 262.106,227.984 262.889 M95.301 265.117 C 92.978 266.128,91.187 269.519,91.093 273.083 C 91.071 273.921,90.922 274.100,90.114 274.262 C 87.563 274.772,68.844 275.825,54.704 276.253 C 50.336 276.386,47.822 276.584,47.673 276.807 C 47.264 277.419,47.404 281.265,47.858 281.886 C 48.547 282.829,61.771 282.410,88.450 280.600 C 91.122 280.418,91.714 280.460,91.859 280.837 C 92.348 282.112,90.062 289.177,88.875 290.057 C 88.596 290.265,87.872 291.071,87.267 291.848 C 85.955 293.533,84.248 295.121,82.252 296.513 C 81.448 297.073,80.633 297.665,80.440 297.827 C 77.477 300.327,68.327 301.022,62.688 299.176 C 60.905 298.593,59.447 297.979,59.447 297.814 C 59.447 297.648,59.304 297.600,59.130 297.708 C 58.957 297.815,58.814 297.752,58.814 297.568 C 58.814 297.384,58.672 297.233,58.498 297.233 C 57.196 297.233,60.555 299.639,63.399 300.744 C 75.148 305.307,87.786 300.413,93.290 289.170 C 95.359 284.943,95.498 284.237,95.804 276.441 C 96.119 268.422,96.469 267.386,99.207 266.378 C 101.105 265.679,101.482 265.361,100.867 264.972 C 100.165 264.528,96.430 264.626,95.301 265.117 M299.485 264.932 C 298.883 265.338,299.275 265.841,300.384 266.084 C 303.433 266.754,304.145 268.543,304.376 276.114 C 304.681 286.140,306.664 291.349,312.086 296.370 C 319.404 303.145,332.768 304.397,340.148 298.999 C 341.956 297.678,341.841 297.430,339.842 298.338 C 335.528 300.296,329.690 300.939,325.579 299.908 C 323.518 299.391,320.264 298.198,320.000 297.862 C 319.913 297.752,319.628 297.579,319.368 297.478 C 318.713 297.225,313.043 292.473,313.043 292.177 C 313.043 292.045,312.476 291.317,311.782 290.558 C 309.930 288.531,307.521 281.464,308.388 280.598 C 308.505 280.481,310.987 280.552,313.905 280.757 C 334.326 282.186,351.959 282.787,352.403 282.068 C 352.816 281.401,352.959 277.724,352.599 277.051 C 352.258 276.414,351.992 276.364,349.001 276.362 C 342.062 276.358,312.841 274.790,309.960 274.267 C 308.942 274.081,308.933 274.064,308.933 272.262 C 308.933 270.025,307.461 266.918,305.801 265.652 C 304.638 264.764,300.444 264.287,299.485 264.932 M30.400 277.391 C 28.575 283.236,29.085 292.174,31.244 292.174 C 31.978 292.174,32.009 292.096,32.587 288.712 C 33.324 284.402,36.143 280.270,40.079 277.731 C 42.297 276.300,42.476 276.364,36.230 276.364 L 30.721 276.364 30.400 277.391 M358.893 276.670 C 358.893 276.839,359.640 277.455,360.553 278.040 C 364.091 280.305,366.692 284.087,367.448 288.064 C 368.160 291.809,368.232 292.012,368.875 292.107 C 371.076 292.432,371.646 280.737,369.614 276.940 C 369.266 276.289,358.893 276.028,358.893 276.670 M103.353 289.235 C 102.634 289.346,102.374 289.726,101.499 291.955 C 97.976 300.927,92.396 307.284,83.960 311.937 C 80.403 313.900,82.190 313.587,86.535 311.486 C 93.119 308.304,97.906 304.097,101.477 298.356 C 103.281 295.455,105.282 290.926,105.291 289.723 C 105.297 288.994,105.154 288.958,103.353 289.235 M294.704 289.238 C 294.704 290.886,297.779 297.105,300.436 300.833 C 304.141 306.028,312.701 312.193,317.628 313.214 L 318.577 313.410 317.628 312.804 C 317.107 312.471,315.650 311.600,314.392 310.870 C 307.190 306.691,300.089 297.834,298.334 290.841 C 298.020 289.589,294.704 288.125,294.704 289.238 " stroke="none" fill="#043c73" fill-rule="evenodd"></path><path id="path2" d="M75.333 0.395 C 75.404 0.613,76.678 1.605,78.164 2.600 C 81.820 5.049,87.039 10.414,89.648 14.406 C 90.778 16.135,91.824 17.700,91.973 17.883 C 92.121 18.067,94.871 23.474,98.084 29.899 C 101.297 36.324,121.096 75.874,142.081 117.787 C 163.065 159.700,181.114 195.842,182.188 198.103 C 183.261 200.364,184.314 202.427,184.527 202.688 C 184.740 202.949,186.099 205.652,187.549 208.696 C 188.998 211.739,190.279 214.300,190.394 214.387 C 190.510 214.474,191.968 217.320,193.635 220.711 C 197.572 228.723,199.592 232.397,200.065 232.405 C 200.558 232.413,201.441 230.732,212.344 209.012 C 217.364 199.012,221.604 190.650,221.766 190.431 C 221.928 190.211,223.265 187.508,224.737 184.423 C 226.210 181.338,227.591 178.601,227.806 178.340 C 228.022 178.079,229.442 175.234,230.963 172.018 C 232.484 168.802,233.831 166.099,233.958 166.011 C 234.084 165.922,235.436 163.217,236.961 160.000 C 238.486 156.783,239.914 153.937,240.133 153.676 C 240.352 153.415,241.702 150.714,243.133 147.674 C 244.563 144.633,245.844 142.072,245.980 141.982 C 246.115 141.892,247.467 139.186,248.986 135.968 C 250.504 132.751,251.980 129.763,252.266 129.328 C 252.552 128.893,253.977 126.048,255.433 123.005 C 256.888 119.963,258.177 117.401,258.295 117.314 C 258.414 117.226,259.765 114.522,261.297 111.304 C 262.830 108.087,264.316 105.099,264.601 104.664 C 264.886 104.229,266.306 101.400,267.757 98.376 C 269.208 95.353,270.600 92.675,270.850 92.425 C 271.100 92.175,271.304 91.845,271.304 91.691 C 271.304 91.390,276.502 80.689,276.909 80.151 C 277.044 79.973,283.480 67.167,291.212 51.693 C 306.409 21.275,308.117 17.990,310.857 13.913 C 313.284 10.300,318.632 4.938,322.198 2.540 C 323.772 1.482,325.059 0.477,325.059 0.308 C 325.059 -0.124,319.767 -0.093,319.623 0.340 C 319.561 0.527,318.354 0.881,316.942 1.126 C 307.465 2.770,296.611 8.966,295.378 13.434 C 295.197 14.087,294.861 14.852,294.629 15.136 C 294.397 15.420,292.293 19.565,289.953 24.348 C 285.716 33.008,206.686 191.023,203.129 197.945 C 202.102 199.945,201.069 202.052,200.833 202.627 C 200.431 203.611,200.372 203.642,199.832 203.153 C 199.207 202.587,105.636 15.778,104.997 13.821 C 103.441 9.051,93.644 3.267,83.696 1.247 C 81.924 0.887,80.339 0.459,80.174 0.296 C 79.695 -0.176,75.177 -0.084,75.333 0.395 M235.573 0.150 C 235.573 0.232,236.009 1.397,236.541 2.737 C 240.357 12.341,239.197 23.625,233.492 32.411 C 233.266 32.759,231.917 35.534,230.495 38.577 C 229.073 41.621,227.792 44.185,227.648 44.277 C 227.504 44.368,226.150 47.072,224.639 50.285 C 223.128 53.498,221.708 56.340,221.484 56.601 C 221.260 56.862,219.838 59.708,218.325 62.925 C 216.811 66.142,215.462 68.846,215.326 68.933 C 215.191 69.020,213.836 71.724,212.316 74.941 C 210.795 78.158,209.309 81.146,209.012 81.581 C 208.715 82.016,207.245 84.862,205.745 87.905 C 204.245 90.949,202.355 94.713,201.545 96.271 L 200.072 99.104 198.653 96.271 C 197.872 94.713,197.127 93.368,196.997 93.281 C 196.868 93.194,195.455 90.352,193.859 86.965 C 192.263 83.579,190.843 80.733,190.705 80.641 C 190.567 80.549,189.215 77.845,187.700 74.632 C 186.185 71.419,184.834 68.716,184.697 68.625 C 184.560 68.533,183.135 65.686,181.530 62.297 C 179.925 58.909,178.506 56.063,178.378 55.973 C 178.249 55.884,176.907 53.203,175.396 50.016 C 173.884 46.830,172.434 44.009,172.173 43.749 C 171.913 43.488,171.700 43.149,171.700 42.995 C 171.700 42.605,166.339 31.198,166.060 30.995 C 165.577 30.643,162.874 24.385,162.232 22.134 C 160.696 16.750,161.111 9.475,163.284 3.702 C 164.757 -0.212,164.631 -0.151,154.388 7.996 L 147.669 13.340 147.844 15.603 C 148.398 22.792,149.374 26.697,152.123 32.727 C 154.957 38.944,199.674 128.166,200.012 128.278 C 200.451 128.424,248.509 31.971,249.913 28.123 C 251.951 22.541,253.029 13.862,251.812 12.837 C 249.485 10.878,237.201 1.143,236.751 0.902 C 236.441 0.736,236.271 0.466,236.373 0.300 C 236.476 0.135,236.337 0.000,236.066 0.000 C 235.795 0.000,235.573 0.067,235.573 0.150 M396.976 167.433 C 395.596 168.564,393.186 170.441,391.621 171.603 C 390.055 172.766,386.854 175.158,384.506 176.920 C 363.034 193.033,337.589 208.234,307.194 223.109 C 298.466 227.379,295.505 228.749,283.774 233.938 C 264.039 242.666,239.321 251.580,213.439 259.300 C 182.194 268.620,119.941 280.448,102.010 280.472 L 100.146 280.474 100.331 278.488 C 100.511 276.562,101.302 274.270,102.188 273.109 C 102.476 272.731,103.349 272.439,104.809 272.232 C 107.485 271.853,107.463 271.874,106.443 270.661 C 105.986 270.119,105.613 269.568,105.613 269.437 C 105.613 269.077,101.965 265.296,101.617 265.296 C 101.449 265.296,101.177 265.415,101.012 265.560 C 100.847 265.706,100.034 266.073,99.207 266.378 C 96.469 267.386,96.119 268.422,95.804 276.441 C 95.498 284.238,95.359 284.944,93.288 289.170 C 87.763 300.447,75.175 305.302,63.333 300.722 C 61.139 299.874,58.891 298.354,59.048 297.826 C 59.089 297.686,58.911 297.653,58.652 297.753 C 58.367 297.862,58.182 297.750,58.182 297.467 C 58.182 297.211,57.594 296.612,56.875 296.136 C 55.030 294.916,52.782 292.786,52.987 292.454 C 53.082 292.300,53.960 292.174,54.937 292.174 C 55.914 292.174,57.151 292.041,57.685 291.878 C 58.219 291.716,64.419 291.342,71.462 291.048 C 78.506 290.754,85.336 290.425,86.640 290.316 L 89.012 290.119 90.035 288.063 C 91.086 285.953,92.171 281.652,91.859 280.837 C 91.714 280.460,91.122 280.418,88.450 280.600 C 72.464 281.684,64.644 282.100,57.032 282.269 L 48.136 282.466 47.742 281.730 C 47.359 281.014,47.424 278.556,47.939 274.287 C 48.362 270.783,45.541 270.406,43.963 273.755 C 43.059 275.674,42.741 276.025,40.812 277.239 C 36.291 280.083,33.365 284.165,32.587 288.712 C 32.395 289.833,32.169 291.067,32.084 291.454 C 31.930 292.154,31.952 292.158,36.718 292.245 L 41.508 292.332 42.219 294.387 C 44.508 300.999,46.564 304.574,49.708 307.407 C 50.803 308.394,52.178 309.646,52.764 310.189 C 59.506 316.448,74.861 318.077,86.008 313.716 C 93.050 310.961,100.623 304.397,103.536 298.522 C 103.930 297.726,104.631 296.435,105.093 295.652 C 105.554 294.870,106.224 293.260,106.582 292.076 C 107.551 288.864,107.459 288.912,114.174 288.107 C 120.174 287.388,128.596 286.151,131.383 285.580 C 132.253 285.402,136.379 284.741,140.553 284.111 C 149.643 282.739,163.386 280.276,164.269 279.860 C 164.617 279.696,167.818 278.975,171.383 278.257 C 179.612 276.600,191.557 273.870,192.220 273.494 C 192.499 273.336,194.364 272.804,196.364 272.311 L 200.000 271.415 203.794 272.308 C 205.881 272.799,207.874 273.343,208.221 273.517 C 209.314 274.062,229.566 278.609,234.308 279.374 C 235.091 279.500,235.802 279.707,235.889 279.834 C 236.113 280.160,250.565 282.732,260.870 284.279 C 265.652 284.997,269.850 285.709,270.198 285.862 C 270.545 286.014,274.814 286.647,279.684 287.268 C 284.553 287.889,289.461 288.571,290.591 288.783 L 292.644 289.170 293.472 291.700 C 296.830 301.948,305.528 310.841,315.573 314.294 C 326.619 318.092,341.192 316.032,347.984 309.713 C 348.854 308.904,350.024 307.885,350.584 307.450 C 352.193 306.199,356.680 299.055,356.680 297.744 C 356.680 297.492,356.804 297.238,356.956 297.181 C 357.107 297.123,357.570 296.008,357.983 294.704 L 358.735 292.332 363.522 292.245 L 368.308 292.158 368.053 290.980 C 367.912 290.332,367.628 288.949,367.421 287.905 C 366.653 284.038,364.026 280.263,360.553 278.040 C 359.640 277.455,358.893 276.839,358.893 276.670 C 358.893 276.502,358.715 276.359,358.498 276.353 C 357.768 276.334,356.814 275.268,356.242 273.834 C 355.471 271.900,355.187 271.621,353.992 271.621 C 352.441 271.621,352.168 272.175,352.404 274.847 C 352.700 278.207,352.737 281.184,352.489 281.818 C 352.101 282.811,337.524 282.410,313.905 280.757 C 310.987 280.552,308.505 280.481,308.388 280.598 C 308.034 280.952,308.874 285.067,309.733 287.183 C 311.027 290.375,310.811 290.252,315.450 290.457 C 324.813 290.872,341.852 291.866,344.348 292.142 C 345.826 292.306,347.167 292.451,347.328 292.465 C 347.853 292.510,346.135 294.104,343.794 295.743 C 342.534 296.627,341.498 297.501,341.492 297.687 C 341.477 298.197,339.022 299.888,337.182 300.656 C 327.238 304.806,314.444 301.169,308.735 292.568 C 305.587 287.825,304.621 284.181,304.376 276.111 C 304.149 268.679,303.575 267.115,300.744 266.219 C 300.117 266.021,299.450 265.665,299.260 265.428 C 298.902 264.980,296.285 266.557,296.285 267.221 C 296.285 267.380,296.005 267.790,295.663 268.132 C 295.321 268.473,294.679 269.327,294.236 270.029 C 293.793 270.730,293.262 271.304,293.055 271.304 C 291.972 271.304,293.552 271.890,295.447 272.191 C 296.837 272.412,297.776 272.739,298.070 273.105 C 299.604 275.021,300.733 280.243,299.698 280.640 C 297.746 281.389,257.352 275.656,239.571 272.106 C 222.280 268.654,215.156 266.896,216.627 266.444 C 216.873 266.369,219.824 265.437,223.184 264.374 C 226.544 263.311,230.218 262.311,231.348 262.151 C 232.478 261.991,233.571 261.721,233.777 261.552 C 233.982 261.383,237.850 260.077,242.372 258.649 C 246.893 257.221,250.949 255.854,251.383 255.612 C 251.818 255.370,255.931 253.892,260.524 252.327 C 265.116 250.762,269.029 249.360,269.219 249.212 C 269.410 249.064,270.206 248.722,270.988 248.452 C 274.917 247.096,281.003 244.643,284.084 243.175 C 285.983 242.270,288.202 241.268,289.016 240.947 C 291.306 240.044,303.842 233.829,308.775 231.151 C 311.209 229.829,314.455 228.113,315.987 227.338 C 317.519 226.563,319.043 225.680,319.373 225.375 C 319.703 225.071,320.045 224.822,320.133 224.822 C 320.429 224.822,328.368 220.320,329.644 219.429 C 330.340 218.943,331.905 217.972,333.123 217.271 C 335.706 215.783,339.229 213.582,342.422 211.462 C 343.666 210.636,344.757 209.960,344.846 209.960 C 344.936 209.960,346.097 209.213,347.428 208.300 C 348.758 207.387,351.642 205.427,353.836 203.944 C 356.029 202.461,358.456 200.735,359.228 200.109 C 360.001 199.483,361.700 198.255,363.004 197.380 C 364.308 196.505,365.874 195.336,366.482 194.781 C 367.091 194.227,368.229 193.335,369.012 192.801 C 370.696 191.650,373.401 189.512,374.072 188.803 C 374.334 188.527,375.116 187.882,375.811 187.371 C 380.077 184.236,391.194 174.179,397.462 167.786 C 400.354 164.837,400.242 164.756,396.976 167.433 M3.794 168.675 C 7.109 172.153,13.080 177.827,16.285 180.542 C 17.154 181.279,18.690 182.639,19.698 183.563 C 20.705 184.488,22.175 185.718,22.962 186.298 C 23.750 186.878,25.345 188.178,26.506 189.187 C 27.667 190.196,29.399 191.543,30.356 192.180 C 31.312 192.817,32.664 193.856,33.360 194.489 C 34.055 195.122,35.834 196.467,37.312 197.479 C 38.791 198.490,40.878 199.989,41.950 200.810 C 43.023 201.631,45.371 203.274,47.168 204.462 C 48.965 205.650,50.506 206.706,50.593 206.810 C 50.869 207.139,53.496 208.857,56.601 210.739 C 58.253 211.741,59.676 212.655,59.763 212.770 C 59.922 212.981,65.928 216.579,67.984 217.696 C 68.593 218.026,69.589 218.683,70.198 219.156 C 70.806 219.628,73.296 221.115,75.731 222.460 C 78.166 223.805,80.372 225.090,80.635 225.317 C 80.897 225.544,83.244 226.828,85.852 228.170 C 88.459 229.512,90.949 230.853,91.383 231.151 C 92.448 231.880,109.035 240.045,111.621 241.113 C 112.751 241.580,114.672 242.461,115.889 243.070 C 118.009 244.132,126.841 247.683,129.486 248.537 C 130.182 248.762,130.822 249.046,130.909 249.169 C 131.060 249.382,143.551 253.774,146.877 254.784 C 147.747 255.048,148.530 255.365,148.617 255.488 C 148.704 255.610,152.617 256.947,157.312 258.458 C 162.008 259.969,166.257 261.432,166.756 261.709 C 167.896 262.343,169.304 262.193,176.194 260.699 C 185.947 258.584,185.925 258.937,176.489 256.128 C 118.251 238.793,51.438 205.182,9.012 171.878 C 6.271 169.727,3.840 167.977,2.846 167.438 C 2.585 167.297,3.012 167.853,3.794 168.675 M27.021 275.657 C 26.839 275.785,26.281 276.743,25.781 277.787 C 25.281 278.830,24.719 279.788,24.531 279.916 C 24.343 280.044,24.314 280.151,24.466 280.153 C 24.617 280.156,24.594 280.336,24.414 280.553 C 23.627 281.503,23.577 288.241,24.351 289.015 C 24.745 289.409,25.197 290.311,25.356 291.019 C 25.751 292.777,26.116 293.123,27.578 293.123 C 29.173 293.123,30.602 292.139,29.878 291.539 C 28.905 290.731,29.509 278.854,30.629 276.759 C 31.160 275.769,28.165 274.854,27.021 275.657 M369.887 275.796 C 369.388 276.169,369.379 276.322,369.794 277.514 C 370.958 280.861,371.251 290.999,370.203 291.660 C 369.358 292.193,370.887 293.123,372.608 293.123 C 374.175 293.123,374.457 292.849,374.810 290.982 C 374.918 290.414,375.307 289.631,375.675 289.243 C 376.946 287.900,376.460 281.234,374.897 278.577 C 374.232 277.447,373.582 276.308,373.452 276.047 C 373.144 275.428,370.618 275.250,369.887 275.796 M105.291 289.723 C 105.282 290.926,103.281 295.455,101.477 298.356 C 97.906 304.097,93.119 308.304,86.535 311.486 C 82.190 313.587,80.403 313.900,83.960 311.937 C 92.396 307.284,97.976 300.927,101.499 291.955 C 102.374 289.726,102.634 289.346,103.353 289.235 C 105.154 288.958,105.297 288.994,105.291 289.723 M297.740 289.671 C 297.949 289.845,298.216 290.371,298.334 290.841 C 300.089 297.834,307.190 306.691,314.392 310.870 C 315.650 311.600,317.107 312.471,317.628 312.804 L 318.577 313.410 317.628 313.214 C 312.701 312.193,304.141 306.028,300.436 300.833 C 297.779 297.105,294.704 290.886,294.704 289.238 C 294.704 288.863,297.195 289.219,297.740 289.671 " stroke="none" fill="#1b2c4c" fill-rule="evenodd"></path><path id="path3" d="M242.988 42.720 C 242.366 43.955,241.908 45.018,241.971 45.081 C 242.034 45.144,242.611 44.133,243.254 42.835 C 243.896 41.536,244.354 40.474,244.270 40.474 C 244.187 40.474,243.610 41.485,242.988 42.720 M254.071 95.810 C 253.801 96.332,253.652 96.759,253.739 96.759 C 253.826 96.759,254.118 96.332,254.387 95.810 C 254.657 95.289,254.807 94.862,254.720 94.862 C 254.633 94.862,254.341 95.289,254.071 95.810 M248.379 107.194 C 248.110 107.715,247.960 108.142,248.047 108.142 C 248.134 108.142,248.426 107.715,248.696 107.194 C 248.965 106.672,249.115 106.245,249.028 106.245 C 248.941 106.245,248.649 106.672,248.379 107.194 M241.739 120.474 C 241.469 120.996,241.320 121.423,241.407 121.423 C 241.494 121.423,241.786 120.996,242.055 120.474 C 242.325 119.953,242.475 119.526,242.388 119.526 C 242.301 119.526,242.009 119.953,241.739 120.474 M236.047 131.858 C 235.778 132.379,235.628 132.806,235.715 132.806 C 235.802 132.806,236.094 132.379,236.364 131.858 C 236.633 131.336,236.783 130.909,236.696 130.909 C 236.609 130.909,236.317 131.336,236.047 131.858 M229.881 144.190 C 229.355 145.233,228.995 146.087,229.082 146.087 C 229.169 146.087,229.671 145.233,230.198 144.190 C 230.724 143.146,231.084 142.292,230.997 142.292 C 230.910 142.292,230.408 143.146,229.881 144.190 M223.874 156.206 C 223.519 156.901,223.299 157.470,223.386 157.470 C 223.473 157.470,223.835 156.901,224.190 156.206 C 224.545 155.510,224.764 154.941,224.677 154.941 C 224.590 154.941,224.228 155.510,223.874 156.206 M217.549 168.854 C 217.023 169.897,216.663 170.751,216.750 170.751 C 216.837 170.751,217.339 169.897,217.866 168.854 C 218.392 167.810,218.752 166.957,218.665 166.957 C 218.578 166.957,218.076 167.810,217.549 168.854 M182.609 169.486 C 182.878 170.008,183.170 170.435,183.257 170.435 C 183.344 170.435,183.195 170.008,182.925 169.486 C 182.655 168.964,182.363 168.538,182.276 168.538 C 182.189 168.538,182.339 168.964,182.609 169.486 M188.142 180.553 C 188.497 181.249,188.859 181.818,188.946 181.818 C 189.033 181.818,188.813 181.249,188.458 180.553 C 188.104 179.858,187.742 179.289,187.655 179.289 C 187.568 179.289,187.787 179.858,188.142 180.553 M211.700 180.553 C 211.430 181.075,211.280 181.502,211.367 181.502 C 211.454 181.502,211.746 181.075,212.016 180.553 C 212.286 180.032,212.435 179.605,212.348 179.605 C 212.261 179.605,211.969 180.032,211.700 180.553 M193.834 191.937 C 194.189 192.632,194.550 193.202,194.637 193.202 C 194.724 193.202,194.505 192.632,194.150 191.937 C 193.795 191.241,193.434 190.672,193.347 190.672 C 193.260 190.672,193.479 191.241,193.834 191.937 " stroke="none" fill="#733a37" fill-rule="evenodd"></path><path id="path4" d="M104.980 13.518 C 104.980 13.648,105.727 13.714,106.640 13.665 C 109.630 13.502,109.925 13.376,107.431 13.328 C 106.083 13.302,104.980 13.387,104.980 13.518 M120.373 13.518 C 125.273 13.567,133.384 13.567,138.396 13.518 C 143.409 13.469,139.399 13.429,129.486 13.429 C 119.573 13.429,115.472 13.469,120.373 13.518 M261.920 13.518 C 267.280 13.566,275.960 13.566,281.209 13.518 C 286.457 13.469,282.071 13.429,271.462 13.429 C 260.854 13.429,256.560 13.469,261.920 13.518 M293.755 13.402 C 293.755 13.469,294.111 13.591,294.545 13.674 C 294.980 13.757,295.336 13.703,295.336 13.553 C 295.336 13.403,294.980 13.281,294.545 13.281 C 294.111 13.281,293.755 13.335,293.755 13.402 M168.918 141.811 C 169.296 142.590,169.660 143.173,169.726 143.107 C 169.869 142.964,168.591 140.395,168.377 140.395 C 168.296 140.395,168.539 141.032,168.918 141.811 M174.452 152.877 C 174.919 153.828,175.354 154.554,175.419 154.489 C 175.561 154.347,173.966 151.146,173.753 151.146 C 173.671 151.146,173.986 151.925,174.452 152.877 M180.395 164.743 C 181.008 165.960,181.581 166.957,181.668 166.957 C 181.755 166.957,181.325 165.960,180.711 164.743 C 180.098 163.526,179.526 162.530,179.439 162.530 C 179.352 162.530,179.782 163.526,180.395 164.743 M186.877 177.708 C 187.404 178.751,187.906 179.605,187.993 179.605 C 188.080 179.605,187.720 178.751,187.194 177.708 C 186.667 176.664,186.165 175.810,186.078 175.810 C 185.991 175.810,186.351 176.664,186.877 177.708 M192.569 189.091 C 193.096 190.134,193.598 190.988,193.685 190.988 C 193.772 190.988,193.412 190.134,192.885 189.091 C 192.359 188.047,191.857 187.194,191.770 187.194 C 191.683 187.194,192.042 188.047,192.569 189.091 " stroke="none" fill="#a83d2c" fill-rule="evenodd"></path></g></svg>